HIERARCHY
ROOT RootJoint
{
    OFFSET   0.000000   0.000000   0.000000
    CHANNELS 6 Xposition Yposition Zposition Xrotation Yrotation Zrotation
    JOINT pelvis_lowerback
    {
        OFFSET   0.000000   0.093605   0.000000
        CHANNELS 3 Xrotation Yrotation Zrotation
        JOINT lowerback_torso
        {
            OFFSET   0.000000   0.100000   0.000000
            CHANNELS 3 Xrotation Yrotation Zrotation
            JOINT torso_head
            {
                OFFSET   0.000000   0.282350   0.000000
                CHANNELS 3 Xrotation Yrotation Zrotation
                End Site
                {
                    OFFSET   0.000000   0.192650   0.000000
                }
            }
            JOINT rTorso_Clavicle
            {
                OFFSET  -0.001000   0.157500   0.000000
                CHANNELS 3 Xrotation Yrotation Zrotation
                JOINT rShoulder
                {
                    OFFSET  -0.117647   0.000000   0.000000
                    CHANNELS 3 Xrotation Yrotation Zrotation
                    JOINT rElbow
                    {
                        OFFSET  -0.245000   0.000000   0.000000
                        CHANNELS 3 Xrotation Yrotation Zrotation
                        JOINT rWrist
                        {
                            OFFSET  -0.240000   0.000000   0.000000
                            CHANNELS 3 Xrotation Yrotation Zrotation
                            End Site
                            {
                                OFFSET  -0.116353  -0.002500   0.000000
                            }
                        }
                    }
                }
            }
            JOINT lTorso_Clavicle
            {
                OFFSET   0.001000   0.157500   0.000000
                CHANNELS 3 Xrotation Yrotation Zrotation
                JOINT lShoulder
                {
                    OFFSET   0.117647   0.000000   0.000000
                    CHANNELS 3 Xrotation Yrotation Zrotation
                    JOINT lElbow
                    {
                        OFFSET   0.245000   0.000000   0.000000
                        CHANNELS 3 Xrotation Yrotation Zrotation
                        JOINT lWrist
                        {
                            OFFSET   0.240000   0.000000   0.000000
                            CHANNELS 3 Xrotation Yrotation Zrotation
                            End Site
                            {
                                OFFSET   0.116353  -0.002500   0.000000
                            }
                        }
                    }
                }
            }
        }
    }
    JOINT rHip
    {
        OFFSET  -0.100000  -0.051395   0.000000
        CHANNELS 3 Xrotation Yrotation Zrotation
        JOINT rKnee
        {
            OFFSET   0.000000  -0.410000   0.000000
            CHANNELS 3 Xrotation Yrotation Zrotation
            JOINT rAnkle
            {
                OFFSET   0.000000  -0.390000   0.000000
                CHANNELS 3 Xrotation Yrotation Zrotation
                JOINT rToeJoint
                {
                    OFFSET   0.000000  -0.050000   0.130000
                    CHANNELS 3 Xrotation Yrotation Zrotation
                    End Site
                    {
                        OFFSET  -0.010000   0.002000   0.060000
                    }
                }
            }
        }
    }
    JOINT lHip
    {
        OFFSET   0.100000  -0.051395   0.000000
        CHANNELS 3 Xrotation Yrotation Zrotation
        JOINT lKnee
        {
            OFFSET   0.000000  -0.410000   0.000000
            CHANNELS 3 Xrotation Yrotation Zrotation
            JOINT lAnkle
            {
                OFFSET   0.000000  -0.390000   0.000000
                CHANNELS 3 Xrotation Yrotation Zrotation
                JOINT lToeJoint
                {
                    OFFSET   0.000000  -0.050000   0.130000
                    CHANNELS 3 Xrotation Yrotation Zrotation
                    End Site
                    {
                        OFFSET   0.010000   0.002000   0.060000
                    }
                }
            }
        }
    }
}
MOTION
Frames: 11
Frame Time:   0.008333
 -2.281288   0.907680   3.972792  -8.780358  25.915975   5.853882  12.193319   3.185395  -0.462345   7.569333   0.299026   4.007207   2.430628  -1.833553   1.028895  -2.523905  12.820871  -3.812937  -4.532341  32.036923  52.089533 179.982759  64.851642 -179.986371   2.026255   2.879253   4.163992   2.375378  -7.628537  -1.434689   5.535654  -6.884689 -49.291994   0.101493 -73.490027   0.141158   0.260579  -1.987398   1.405542  -5.094688   0.511057 -10.344589  24.004462  -0.004594  -0.029615  -7.604920  -1.978993   0.544448  -5.007679   0.000365  -0.018070  -6.977435   1.489426  11.845821  41.870377  -0.012826  -0.001566  -6.267201  -1.654764  -6.440394  -7.707100   0.044922   0.022924
 -2.281691   0.907924   3.974922  -9.146490  26.955930   5.844982  12.218120   3.617847  -0.531174   7.416834   0.473251   3.675942   2.323315  -2.202691   1.262917  -2.715290  12.624212  -3.682403  -4.360848  31.321082  52.110746 179.995028  65.296337 -179.995954   1.941321   3.319481   4.085653   2.332520  -6.902729  -1.631863   5.720383  -6.513540 -49.752694   0.112201 -72.687083   0.159240   0.195569  -2.056898   1.497373  -4.317013   0.193784 -10.192396  23.649629  -0.004346  -0.026215  -7.428899  -1.897489   0.853162  -5.829562   0.002116  -0.020878  -6.955547   1.402434  11.417209  40.699899  -0.020702  -0.006067  -7.091725  -2.042003  -6.301713  -6.991740   0.041083   0.017951
 -2.281992   0.907883   3.976847  -9.471897  27.962285   5.750817  12.246317   4.003915  -0.549645   7.285338   0.631924   3.405271   2.208137  -2.551695   1.479034  -2.833079  12.385486  -3.528098  -4.141432  30.610996  52.136925 -179.995883  65.757717 179.996590   1.869986   3.514243   3.950078   2.301438  -6.169092  -1.797558   5.903855  -6.120785 -50.161091   0.115682 -71.910616   0.167233   0.120873  -2.004060   1.779819  -3.643445  -0.107347  -9.942680  23.347325  -0.004008  -0.023055  -7.379240  -1.767336   1.218473  -6.120265   0.002578  -0.018996  -6.893936   1.302649  11.047795  39.493829  -0.026885  -0.009634  -7.869123  -2.404078  -6.175355  -6.351715   0.037201   0.014071
 -2.282153   0.907606   3.978489  -9.771380  28.941057   5.615766  12.290523   4.347399  -0.541017   7.184001   0.770111   3.183316   2.099429  -2.878313   1.681087  -2.912796  12.135762  -3.373330  -3.908431  29.932596  52.164740 -179.989447  66.201110 179.991038   1.807071   3.590685   3.814677   2.280891  -5.465434  -1.937441   6.084210  -5.739080 -50.531301   0.112995 -71.177511   0.166583   0.046390  -1.892792   2.123034  -3.041796  -0.385890  -9.645877  23.083946  -0.003662  -0.020220  -7.373645  -1.633046   1.578629  -6.341122   0.002738  -0.016910  -6.820944   1.207973  10.694383  38.346086  -0.031176  -0.012232  -8.594886  -2.742562  -6.060747  -5.762794   0.033633   0.011196
 -2.282159   0.907142   3.979824 -10.044993  29.885819   5.450030  12.349738   4.656251  -0.509436   7.110210   0.891178   2.999384   2.000002  -3.183527   1.871276  -2.970366  11.889257  -3.222068  -3.676537  29.292372  52.194241 -179.985042  66.620582 179.987022   1.749061   3.615882   3.692356   2.267707  -4.802871  -2.064621   6.258405  -5.378976 -50.875052   0.106279 -70.489630   0.160093  -0.026440  -1.756675   2.469625  -2.499563  -0.645576  -9.332053  22.852540  -0.003349  -0.017672  -7.398185  -1.509336   1.924722  -6.514404   0.002681  -0.014813  -6.741620   1.123933  10.346676  37.271984  -0.033873  -0.013948  -9.271868  -3.059140  -5.956901  -5.221636   0.030392   0.009069
 -2.282025   0.906549   3.980857 -10.288002  30.801453   5.254265  12.419322   4.932849  -0.459040   7.058438   0.996187   2.847589   1.909417  -3.468723   2.051375  -3.012811  11.651797  -3.073516  -3.451697  28.691352  52.226315 -179.982145  67.015456 179.984195   1.694559   3.616501   3.583348   2.259579  -4.184795  -2.187156   6.424735  -5.044145 -51.198939   0.097269 -69.845809   0.150048  -0.097249  -1.610996   2.797290  -2.000848  -0.882214  -8.997620  22.657536  -0.003040  -0.015368  -7.457287  -1.379692   2.265408  -6.672838   0.002581  -0.013010  -6.662268   1.048776  10.005586  36.269391  -0.035333  -0.014986  -9.903233  -3.355259  -5.862755  -4.724123   0.027462   0.007513
 -2.281761   0.905841   3.981588 -10.497259  31.676941   5.033151  12.498141   5.184902  -0.398290   7.023837   1.089653   2.719271   1.827055  -3.735020   2.221635  -3.045504  11.427315  -2.929275  -3.237885  28.129454  52.261031 -179.980371  67.385902 179.982301   1.642682   3.604811   3.485462   2.255148  -3.610138  -2.306486   6.582677  -4.734804 -51.506104   0.087181 -69.244592   0.138043  -0.166011  -1.464944   3.098586  -1.551982  -1.101886  -8.659648  22.463303  -0.002802  -0.013456  -7.532645  -1.260096   2.588960  -6.776868   0.002325  -0.011131  -6.581521   0.983840   9.667966  35.335492  -0.035789  -0.015416 -10.492194  -3.632115  -5.777313  -4.267533   0.024801   0.006336
 -2.281295   0.904947   3.982339 -10.642135  32.279337   4.632550  12.572126   5.449175  -0.234881   6.899432   1.241212   2.576258   1.752229  -3.916814   2.458897  -3.046596  11.039128  -2.803408  -2.904221  27.613216  52.381146 -179.976224  68.248253 179.977981   1.529701   4.032007   3.469898   2.201316  -2.895387  -2.394811   6.724267  -4.279186 -51.836572   0.086667 -68.305788   0.140490  -0.279024  -1.577465   3.185946  -1.322237  -1.306025  -8.206432  22.472900  -0.002227  -0.010731  -7.453336  -1.111499   3.065983  -7.133802   0.003225  -0.010481  -6.227360   0.933047   9.485899  34.163791  -0.036456  -0.014256 -11.236441  -3.796414  -5.444258  -3.689064   0.021558   0.004632
 -2.280653   0.903858   3.982945 -10.741243  32.795090   4.156840  12.619284   5.662449  -0.053317   6.778338   1.371557   2.475490   1.668837  -4.086547   2.685632  -2.994679  10.618362  -2.685247  -2.530646  27.089650  52.479515 -179.975361  69.103330 179.976878   1.433933   4.179807   3.454367   2.179649  -2.171263  -2.450957   6.887487  -3.805134 -52.119151   0.082680 -67.392806   0.137275  -0.402393  -1.509335   3.379143  -1.166982  -1.490410  -7.717535  22.530482  -0.001707  -0.008423  -7.405268  -0.939810   3.533301  -7.453004   0.003762  -0.009627  -5.797731   0.872187   9.355646  33.044953  -0.036126  -0.012442 -11.932301  -3.950444  -5.132253  -3.162970   0.018750   0.003117
 -2.279855   0.902626   3.983309 -10.799694  33.248819   3.638290  12.656058   5.833727   0.134417   6.668306   1.473322   2.404336   1.586614  -4.246565   2.898022  -2.920115  10.190996  -2.575770  -2.151648  26.579510  52.565009 -179.976677  69.914499 179.977931   1.348997   4.201511   3.431545   2.173166  -1.473242  -2.486207   7.055209  -3.344446 -52.370393   0.075814 -66.529628   0.129387  -0.525737  -1.360750   3.613403  -1.061662  -1.660183  -7.223598  22.595107  -0.001282  -0.006589  -7.391523  -0.770445   3.986813  -7.695605   0.003857  -0.008522  -5.336340   0.817119   9.242785  32.012876  -0.035125  -0.010453 -12.579995  -4.096631  -4.841659  -2.676938   0.016433   0.001908
 -2.279134   0.901470   3.983467 -10.833608  33.779307   3.192735  12.711793   5.925501   0.238973   6.577576   1.515540   2.335889   1.507203  -4.399475   3.099179  -2.830840   9.768522  -2.455406  -1.780719  26.090189  52.652777 -179.977872  70.679205 179.978709   1.272026   4.161350   3.384590   2.155203  -0.834253  -2.499704   7.203167  -2.914223 -52.583846   0.067692 -65.718806   0.119288  -0.645645  -1.183559   3.864233  -0.970768  -1.824499  -6.814802  22.642660  -0.000951  -0.005132  -7.402016  -0.625455   4.410532  -7.895612   0.003710  -0.007595  -4.907627   0.830517   9.358338  31.097696  -0.032046  -0.011114 -13.367969  -3.959222  -4.521220  -4.413326   0.012964  -0.004539
